<svg width="158.08247070312498px" height="121.383740234375px" xmlns="http://www.w3.org/2000/svg" viewBox="170.95876464843752 14.308129882812501 158.08247070312498 121.383740234375" style="background-color: rgba(0, 0, 0, 0); background-position: initial initial; background-repeat: initial initial;" preserveAspectRatio="xMidYMid"><defs><filter id="editing-hole" x="-100%" y="-100%" width="300%" height="300%"><feFlood flood-color="#000" result="black"></feFlood><feMorphology operator="dilate" radius="2" in="SourceGraphic" result="erode"></feMorphology><feGaussianBlur in="erode" stdDeviation="4" result="blur"></feGaussianBlur><feOffset in="blur" dx="2" dy="2" result="offset"></feOffset><feComposite operator="atop" in="offset" in2="black" result="merge"></feComposite><feComposite operator="in" in="merge" in2="SourceGraphic" result="inner-shadow"></feComposite></filter></defs><g filter="url(#editing-hole)"><g transform="translate(199.85499775409698, 96.76781272888184)"><path d="M6.53 0L-0.83 0L10.75-42.24L24.13-42.24L27.07-18.11L38.98-42.24L50.18-42.24L51.33-10.62L51.33-10.62Q51.58-4.35 54.66-2.43L54.66-2.43L54.66-2.43Q53.95-1.15 51.90 0.06L51.90 0.06L51.90 0.06Q49.86 1.28 47.14 1.28L47.14 1.28L47.14 1.28Q44.42 1.28 42.82 0.51L42.82 0.51L42.82 0.51Q41.22-0.26 40.32-1.54L40.32-1.54L40.32-1.54Q38.72-3.84 38.72-8.26L38.72-8.26L38.72-28.03L26.11 0L18.18 0L13.70-28.74L6.53 0ZM81.28-4.80L81.28-4.80L81.28-4.80Q81.28-9.28 83.07-18.24L83.07-18.24L73.60-18.24L70.08 0L56.70 0L64.83-42.24L78.34-42.24L74.62-23.36L84.10-23.36L87.62-42.24L101.12-42.24L101.12-42.24Q100.22-37.50 99.07-32.19L99.07-32.19L96.90-21.76L96.90-21.76Q94.46-9.60 94.46-4.29L94.46-4.29L94.46-4.29Q94.46-2.11 95.17-0.90L95.17-0.90L95.17-0.90Q91.97 1.28 88.22 1.28L88.22 1.28L88.22 1.28Q84.48 1.28 82.88-0.51L82.88-0.51L82.88-0.51Q81.28-2.30 81.28-4.80Z" fill="#ccc"></path></g></g><style>text {
  font-size: 64px;
  font-family: Arial Black;
  dominant-baseline: central;
  text-anchor: middle;
}</style></svg>